<svg xmlns="http://www.w3.org/2000/svg" viewBox="0 0 420 120" role="img" aria-label="Birla Estates logo">
  <rect width="420" height="120" rx="18" fill="#ffffff"/>
  <g fill="#1b2533">
    <path d="M48 34h52c18 0 30 10 30 25 0 9-5 17-13 21 11 4 18 13 18 25 0 17-13 29-34 29H48V34Zm48 39c8 0 13-4 13-11s-5-10-13-10H70v21h26Zm2 43c10 0 15-5 15-13s-6-12-15-12H70v25h28Z"/>
    <path d="M153 34h23v100h-23V34Z"/>
    <path d="M199 58h21v10c5-8 13-12 23-12h4v22h-7c-13 0-19 6-19 20v36h-22V58Z"/>
    <path d="M262 34h22v100h-22V34Z"/>
    <path d="M300 96c0-22 16-40 38-40 10 0 18 4 23 11v-9h22v76h-22v-9c-5 7-13 11-23 11-22 0-38-18-38-40Zm62 0c0-11-8-20-20-20s-20 9-20 20 8 20 20 20 20-9 20-20Z"/>
  </g>
</svg>
